<?xml version="1.0" standalone="no"?>
<!DOCTYPE svg PUBLIC "-//W3C//DTD SVG 20010904//EN"
 "http://www.w3.org/TR/2001/REC-SVG-20010904/DTD/svg10.dtd">
<svg version="1.0" xmlns="http://www.w3.org/2000/svg"
 width="260.000000pt" height="260.000000pt" viewBox="0 0 260.000000 260.000000"
 preserveAspectRatio="xMidYMid meet">
<metadata>
Created by potrace 1.11, written by Peter Selinger 2001-2013
</metadata>
<g transform="translate(0.000000,260.000000) scale(0.100000,-0.100000)"
fill="#000000" stroke="none">
<path d="M0 1300 l0 -1300 1300 0 1300 0 0 1300 0 1300 -1300 0 -1300 0 0
-1300z m1176 1131 c260 -54 484 -231 599 -472 59 -126 78 -215 78 -369 0 -117
-4 -147 -27 -223 -30 -101 -72 -188 -129 -270 -39 -56 -39 -58 -22 -77 14 -15
31 -20 69 -20 l51 0 327 -327 328 -328 -97 -97 -98 -98 -327 327 -328 328 0
51 c0 38 -5 55 -20 69 -19 17 -21 17 -77 -22 -82 -57 -169 -99 -270 -129 -120
-36 -316 -39 -438 -5 -445 120 -717 554 -626 996 34 167 104 299 225 423 205
212 495 302 782 243z"/>
<path d="M910 2180 c-217 -34 -407 -201 -472 -415 -25 -83 -29 -221 -9 -305
34 -141 132 -279 254 -360 145 -95 344 -120 509 -63 137 48 253 140 321 256
82 139 102 327 53 482 -88 275 -371 450 -656 405z m261 -243 c14 -36 23 -45
67 -62 29 -11 52 -22 52 -25 0 -3 -23 -14 -52 -25 -44 -17 -53 -26 -67 -62 -9
-23 -19 -44 -23 -48 -3 -4 -15 16 -25 44 -17 49 -21 52 -70 68 -29 9 -53 20
-53 23 0 3 24 14 53 23 49 16 53 19 70 68 10 28 22 48 25 44 4 -4 14 -25 23
-48z m-295 -329 l31 -83 86 -30 c48 -16 87 -32 87 -35 0 -3 -39 -19 -87 -36
l-87 -30 -30 -82 c-17 -45 -33 -82 -36 -82 -3 0 -19 37 -36 82 l-30 82 -87 30
c-48 17 -87 33 -87 36 0 3 39 19 87 35 l86 30 31 83 c17 45 33 82 36 82 3 0
19 -37 36 -82z"/>
</g>
</svg>
